# xmcd CD database file
#
# Track frame offsets:
#	150
#	20152
#	37118
#	55492
#
# Disc length: 910 seconds
#
# Revision: 0
# Processed by: cddbd v1.5.2PL0 Copyright (c) Steve Scherf et al.
# Submitted via: CDex 1.51
#
DISCID=36038c04
DTITLE=Piers Faccini - Leave No Trace
DYEAR=1900
DGENRE=Jazz
TTITLE0=Where Angels Fly
TTITLE1=All the Love in All the World
TTITLE2=Circles Round You
TTITLE3=Picture Of You
EXTD=
EXTT0=
EXTT1=
EXTT2=
EXTT3=
PLAYORDER=
